<?xml version="1.0" encoding="UTF-8" standalone="no"?>
<svg width="90px" height="90px" viewBox="0 0 90 90" version="1.1" xmlns="http://www.w3.org/2000/svg" xmlns:xlink="http://www.w3.org/1999/xlink">
    <!-- Generator: Sketch 39.1 (31720) - http://www.bohemiancoding.com/sketch -->
    <title>Group 2</title>
    <desc>Created with Sketch.</desc>
    <defs></defs>
    <g id="Page-1" stroke="none" stroke-width="1" fill="none" fill-rule="evenodd">
        <g id="Desktop-HD" transform="translate(-208.000000, -667.000000)">
            <g id="Group-2" transform="translate(208.000000, 667.000000)">
                <circle id="Oval" fill="#FFFFFF" cx="45" cy="45" r="45"></circle>
                <path d="M50.1943888,44.3086172 L36.1863727,30.3006012 C36.006012,30.1202405 35.7354709,30 35.49499,30 C35.254509,30 34.9839679,30.1202405 34.8036072,30.3006012 L33.3006012,31.8036072 C33.1202405,31.9839679 33,32.254509 33,32.49499 C33,32.7354709 33.1202405,33.006012 33.3006012,33.1863727 L45.1142285,45 L33.3006012,56.8136273 C33.1202405,56.993988 33,57.2645291 33,57.50501 C33,57.7755511 33.1202405,58.0160321 33.3006012,58.1963928 L34.8036072,59.6993988 C34.9839679,59.8797595 35.254509,60 35.49499,60 C35.7354709,60 36.006012,59.8797595 36.1863727,59.6993988 L50.1943888,45.6913828 C50.3747495,45.511022 50.49499,45.240481 50.49499,45 C50.49499,44.759519 50.3747495,44.488978 50.1943888,44.3086172 Z" id="" fill="#F6F6F6" transform="translate(41.747495, 45.000000) rotate(-180.000000) translate(-41.747495, -45.000000) "></path>
            </g>
        </g>
    </g>
</svg>