<?xml version="1.0" encoding="UTF-8" standalone="no"?>
<svg width="90px" height="90px" viewBox="0 0 90 90" version="1.1" xmlns="http://www.w3.org/2000/svg" xmlns:xlink="http://www.w3.org/1999/xlink">
    <!-- Generator: Sketch 39.1 (31720) - http://www.bohemiancoding.com/sketch -->
    <title>Group 2</title>
    <desc>Created with Sketch.</desc>
    <defs></defs>
    <g id="Page-1" stroke="none" stroke-width="1" fill="none" fill-rule="evenodd">
        <g id="Desktop-HD" transform="translate(-1143.000000, -667.000000)">
            <g id="Group-2" transform="translate(1143.000000, 667.000000)">
                <circle id="Oval" fill="#FFFFFF" cx="45" cy="45" r="45"></circle>
                <path d="M56.49499,45 C56.49499,44.759519 56.3747495,44.488978 56.1943888,44.3086172 L42.1863727,30.3006012 C42.006012,30.1202405 41.7354709,30 41.49499,30 C41.254509,30 40.9839679,30.1202405 40.8036072,30.3006012 L39.3006012,31.8036072 C39.1202405,31.9839679 39,32.254509 39,32.49499 C39,32.7354709 39.1202405,33.006012 39.3006012,33.1863727 L51.1142285,45 L39.3006012,56.8136273 C39.1202405,56.993988 39,57.2645291 39,57.50501 C39,57.7755511 39.1202405,58.0160321 39.3006012,58.1963928 L40.8036072,59.6993988 C40.9839679,59.8797595 41.254509,60 41.49499,60 C41.7354709,60 42.006012,59.8797595 42.1863727,59.6993988 L56.1943888,45.6913828 C56.3747495,45.511022 56.49499,45.240481 56.49499,45 L56.49499,45 Z" id="" fill="#F6F6F6"></path>
            </g>
        </g>
    </g>
</svg>